<svg xmlns="http://www.w3.org/2000/svg" width="1200" height="630" viewBox="0 0 1200 630" role="img" aria-label="Checklist">
  <defs>
    <linearGradient id="bg-checklist-complete-eeat-guide-business-websites" x1="0%" y1="0%" x2="100%" y2="100%">
      <stop offset="0%" stop-color="#2A255D"/>
      <stop offset="100%" stop-color="#6B2E88"/>
    </linearGradient>
    <filter id="shadow-checklist-complete-eeat-guide-business-websites">
      <feDropShadow dx="0" dy="6" stdDeviation="10" flood-color="#000" flood-opacity="0.22"/>
    </filter>
  </defs>
  <rect width="1200" height="630" fill="url(#bg-checklist-complete-eeat-guide-business-websites)"/>
  <circle cx="1080" cy="80" r="90" fill="#A4DDFB" opacity="0.1"/>
  <circle cx="90" cy="560" r="110" fill="#A4DDFB" opacity="0.08"/>
  <g transform="translate(72,130)">
        <rect width="26" height="26" rx="6" fill="#A4DDFB"/>
        <path d="M6 13 L11 18 L20 8" fill="none" stroke="#2A255D" stroke-width="3" stroke-linecap="round"/>
        <text x="38" y="19" fill="#ffffff" font-size="16">Author pages live</text>
      </g><g transform="translate(72,178)">
        <rect width="26" height="26" rx="6" fill="#A4DDFB"/>
        <path d="M6 13 L11 18 L20 8" fill="none" stroke="#2A255D" stroke-width="3" stroke-linecap="round"/>
        <text x="38" y="19" fill="#ffffff" font-size="16">About + team page</text>
      </g><g transform="translate(72,226)">
        <rect width="26" height="26" rx="6" fill="#A4DDFB"/>
        <path d="M6 13 L11 18 L20 8" fill="none" stroke="#2A255D" stroke-width="3" stroke-linecap="round"/>
        <text x="38" y="19" fill="#ffffff" font-size="16">Medical/legal review where needed</text>
      </g><g transform="translate(72,274)">
        <rect width="26" height="26" rx="6" fill="#A4DDFB"/>
        <path d="M6 13 L11 18 L20 8" fill="none" stroke="#2A255D" stroke-width="3" stroke-linecap="round"/>
        <text x="38" y="19" fill="#ffffff" font-size="16">Schema Person/Organization</text>
      </g><g transform="translate(680,100) scale(0.55)">
  <path d="M260 80 L310 100 V170 C310 220 260 270 260 270 C260 270 210 220 210 170 V100 Z" fill="rgba(255,255,255,0.15)" stroke="#A4DDFB" stroke-width="4"/>
  <path d="M235 175 L255 200 L295 150" fill="none" stroke="#4ADE80" stroke-width="8" stroke-linecap="round"/>
  <text x="115" y="340" fill="#A4DDFB" font-size="42" font-weight="800">E</text>
  <text x="175" y="340" fill="#ffffff" font-size="42" font-weight="800">E</text>
  <text x="235" y="340" fill="#A4DDFB" font-size="42" font-weight="800">A</text>
  <text x="295" y="340" fill="#ffffff" font-size="42" font-weight="800">T</text>
  <rect x="90" y="380" width="340" height="80" rx="14" fill="rgba(255,255,255,0.1)"/>
  <text x="260" y="428" text-anchor="middle" fill="rgba(255,255,255,0.65)" font-size="15">Experience · Expertise · Authority · Trust</text></g>
  <text x="64" y="590" fill="rgba(255,255,255,0.65)" font-family="Arial,Helvetica,sans-serif" font-size="15">SEO India Tech</text>
  <text x="64" y="72" fill="#A4DDFB" font-family="Arial,sans-serif" font-size="13" font-weight="700" letter-spacing="2">CHECKLIST</text>
  <text x="64" y="560" fill="#ffffff" font-family="Arial,sans-serif" font-size="18" font-weight="600" opacity="0.85">EEAT guide business websites</text>
</svg>