<svg xmlns="http://www.w3.org/2000/svg" width="1200" height="630" viewBox="0 0 1200 630" role="img" aria-label="Checklist">
  <defs>
    <linearGradient id="bg-checklist-content-marketing-strategy-qualified-leads" x1="0%" y1="0%" x2="100%" y2="100%">
      <stop offset="0%" stop-color="#2A255D"/>
      <stop offset="100%" stop-color="#6B2E88"/>
    </linearGradient>
    <filter id="shadow-checklist-content-marketing-strategy-qualified-leads" x="-20%" y="-20%" width="140%" height="140%">
      <feDropShadow dx="0" dy="8" stdDeviation="12" flood-color="#000" flood-opacity="0.25"/>
    </filter>
  </defs>
  <rect width="1200" height="630" fill="url(#bg-checklist-content-marketing-strategy-qualified-leads)"/>
  <circle cx="1040" cy="90" r="70" fill="#A4DDFB" opacity="0.18"/>
  <circle cx="120" cy="520" r="100" fill="#A4DDFB" opacity="0.12"/>
  <g transform="translate(72,150)"><rect width="22" height="22" rx="4" fill="#A4DDFB"/>
    <path d="M5 11 L9 16 L17 6" fill="none" stroke="#2A255D" stroke-width="3"/>
    <text x="34" y="17" fill="#ffffff" font-size="15">Editorial calendar</text></g><g transform="translate(72,192)"><rect width="22" height="22" rx="4" fill="#A4DDFB"/>
    <path d="M5 11 L9 16 L17 6" fill="none" stroke="#2A255D" stroke-width="3"/>
    <text x="34" y="17" fill="#ffffff" font-size="15">SEO keyword map</text></g><g transform="translate(72,234)"><rect width="22" height="22" rx="4" fill="#A4DDFB"/>
    <path d="M5 11 L9 16 L17 6" fill="none" stroke="#2A255D" stroke-width="3"/>
    <text x="34" y="17" fill="#ffffff" font-size="15">CTA on every post</text></g><g transform="translate(72,276)"><rect width="22" height="22" rx="4" fill="#A4DDFB"/>
    <path d="M5 11 L9 16 L17 6" fill="none" stroke="#2A255D" stroke-width="3"/>
    <text x="34" y="17" fill="#ffffff" font-size="15">CRM integration</text></g><g transform="translate(760,120)">
    <polygon points="40,40 180,40 150,95 70,95" fill="#A4DDFB" opacity="0.8"/>
    <polygon points="70,105 150,105 130,160 90,160" fill="#ffffff" opacity="0.7"/>
    <polygon points="90,170 130,170 115,210 105,210" fill="#A4DDFB"/>
  </g>
  <text x="72" y="500" fill="#ffffff" font-family="Arial,Helvetica,sans-serif" font-size="38" font-weight="700">Checklist</text>
  <text x="72" y="548" fill="#A4DDFB" font-family="Arial,Helvetica,sans-serif" font-size="20" font-weight="600">content marketing qualified leads</text>
  <text x="72" y="590" fill="rgba(255,255,255,0.65)" font-family="Arial,Helvetica,sans-serif" font-size="16">SEO India Tech</text>
</svg>