<svg xmlns="http://www.w3.org/2000/svg" width="1200" height="630" viewBox="0 0 1200 630" role="img" aria-label="Checklist">
  <defs>
    <linearGradient id="bg-checklist-core-web-vitals-optimization-guide" x1="0%" y1="0%" x2="100%" y2="100%">
      <stop offset="0%" stop-color="#2A255D"/>
      <stop offset="100%" stop-color="#6B2E88"/>
    </linearGradient>
    <filter id="shadow-checklist-core-web-vitals-optimization-guide">
      <feDropShadow dx="0" dy="6" stdDeviation="10" flood-color="#000" flood-opacity="0.22"/>
    </filter>
  </defs>
  <rect width="1200" height="630" fill="url(#bg-checklist-core-web-vitals-optimization-guide)"/>
  <circle cx="1080" cy="80" r="90" fill="#A4DDFB" opacity="0.1"/>
  <circle cx="90" cy="560" r="110" fill="#A4DDFB" opacity="0.08"/>
  <g transform="translate(72,130)">
        <rect width="26" height="26" rx="6" fill="#A4DDFB"/>
        <path d="M6 13 L11 18 L20 8" fill="none" stroke="#2A255D" stroke-width="3" stroke-linecap="round"/>
        <text x="38" y="19" fill="#ffffff" font-size="16">CrUX report reviewed</text>
      </g><g transform="translate(72,178)">
        <rect width="26" height="26" rx="6" fill="#A4DDFB"/>
        <path d="M6 13 L11 18 L20 8" fill="none" stroke="#2A255D" stroke-width="3" stroke-linecap="round"/>
        <text x="38" y="19" fill="#ffffff" font-size="16">LCP under 2.5s on mobile</text>
      </g><g transform="translate(72,226)">
        <rect width="26" height="26" rx="6" fill="#A4DDFB"/>
        <path d="M6 13 L11 18 L20 8" fill="none" stroke="#2A255D" stroke-width="3" stroke-linecap="round"/>
        <text x="38" y="19" fill="#ffffff" font-size="16">CLS under 0.1</text>
      </g><g transform="translate(72,274)">
        <rect width="26" height="26" rx="6" fill="#A4DDFB"/>
        <path d="M6 13 L11 18 L20 8" fill="none" stroke="#2A255D" stroke-width="3" stroke-linecap="round"/>
        <text x="38" y="19" fill="#ffffff" font-size="16">INP under 200ms</text>
      </g><g transform="translate(680,100) scale(0.55)">
  <circle cx="150" cy="260" r="70" fill="none" stroke="rgba(255,255,255,0.2)" stroke-width="10"/>
  <path d="M150 260 L150 210" stroke="#4ADE80" stroke-width="6" stroke-linecap="round"/>
  <text x="150" y="360" text-anchor="middle" fill="#4ADE80" font-size="16" font-weight="700">LCP</text>
  <circle cx="260" cy="260" r="70" fill="none" stroke="rgba(255,255,255,0.2)" stroke-width="10"/>
  <path d="M260 260 L300 290" stroke="#A4DDFB" stroke-width="6" stroke-linecap="round"/>
  <text x="260" y="360" text-anchor="middle" fill="#A4DDFB" font-size="16" font-weight="700">INP</text>
  <circle cx="370" cy="260" r="70" fill="none" stroke="rgba(255,255,255,0.2)" stroke-width="10"/>
  <path d="M370 260 L370 220" stroke="#FBBF24" stroke-width="6" stroke-linecap="round"/>
  <text x="370" y="360" text-anchor="middle" fill="#FBBF24" font-size="16" font-weight="700">CLS</text>
  <text x="260" y="440" text-anchor="middle" fill="rgba(255,255,255,0.65)" font-size="15">Core Web Vitals</text></g>
  <text x="64" y="590" fill="rgba(255,255,255,0.65)" font-family="Arial,Helvetica,sans-serif" font-size="15">SEO India Tech</text>
  <text x="64" y="72" fill="#A4DDFB" font-family="Arial,sans-serif" font-size="13" font-weight="700" letter-spacing="2">CHECKLIST</text>
  <text x="64" y="560" fill="#ffffff" font-family="Arial,sans-serif" font-size="18" font-weight="600" opacity="0.85">Core Web Vitals optimization</text>
</svg>