<svg xmlns="http://www.w3.org/2000/svg" width="1200" height="630" viewBox="0 0 1200 630" role="img" aria-label="How Google AI Overviews Are Changing Business SEO">
  <defs>
    <linearGradient id="bg-hero-google-ai-overviews-changing-business-seo" x1="0%" y1="0%" x2="100%" y2="100%">
      <stop offset="0%" stop-color="#2A255D"/>
      <stop offset="100%" stop-color="#4A90D9"/>
    </linearGradient>
    <filter id="shadow-hero-google-ai-overviews-changing-business-seo" x="-20%" y="-20%" width="140%" height="140%">
      <feDropShadow dx="0" dy="8" stdDeviation="12" flood-color="#000" flood-opacity="0.25"/>
    </filter>
  </defs>
  <rect width="1200" height="630" fill="url(#bg-hero-google-ai-overviews-changing-business-seo)"/>
  <circle cx="1040" cy="90" r="70" fill="#A4DDFB" opacity="0.18"/>
  <circle cx="120" cy="520" r="100" fill="#A4DDFB" opacity="0.12"/>
  <g transform="translate(740,110)">
    <circle cx="110" cy="110" r="95" fill="rgba(255,255,255,0.12)" stroke="#A4DDFB" stroke-width="3"/>
    <path d="M70 110 Q110 60 150 110 Q110 160 70 110" fill="none" stroke="#A4DDFB" stroke-width="4"/>
    <circle cx="90" cy="95" r="8" fill="#A4DDFB"/><circle cx="130" cy="95" r="8" fill="#A4DDFB"/>
    <path d="M85 130 Q110 145 135 130" fill="none" stroke="#ffffff" stroke-width="3" stroke-linecap="round"/>
    <rect x="175" y="40" width="90" height="50" rx="10" fill="rgba(164,221,251,0.25)" stroke="#A4DDFB"/>
    <text x="188" y="72" fill="#ffffff" font-size="14" font-family="Arial">AI</text>
  </g>
    <text x="72" y="100" fill="#A4DDFB" font-family="Arial,sans-serif" font-size="14" font-weight="700" letter-spacing="2">BLOG GUIDE</text>
    <rect x="72" y="120" width="120" height="4" rx="2" fill="#A4DDFB"/>
  <text x="72" y="500" fill="#ffffff" font-family="Arial,Helvetica,sans-serif" font-size="38" font-weight="700">How Google AI Overviews Are Changing Business SEO</text>
  <text x="72" y="548" fill="#A4DDFB" font-family="Arial,Helvetica,sans-serif" font-size="20" font-weight="600">Generative Engine Optimization</text>
  <text x="72" y="590" fill="rgba(255,255,255,0.65)" font-family="Arial,Helvetica,sans-serif" font-size="16">SEO India Tech</text>
</svg>