<svg xmlns="http://www.w3.org/2000/svg" width="1200" height="630" viewBox="0 0 1200 630" role="img" aria-label="SEO for Law Firms: Complete Guide">
  <defs>
    <linearGradient id="bg-hero-seo-law-firms-complete-guide" x1="0%" y1="0%" x2="100%" y2="100%">
      <stop offset="0%" stop-color="#2A255D"/>
      <stop offset="100%" stop-color="#2A255D"/>
    </linearGradient>
    <filter id="shadow-hero-seo-law-firms-complete-guide" x="-20%" y="-20%" width="140%" height="140%">
      <feDropShadow dx="0" dy="8" stdDeviation="12" flood-color="#000" flood-opacity="0.25"/>
    </filter>
  </defs>
  <rect width="1200" height="630" fill="url(#bg-hero-seo-law-firms-complete-guide)"/>
  <circle cx="1040" cy="90" r="70" fill="#A4DDFB" opacity="0.18"/>
  <circle cx="120" cy="520" r="100" fill="#A4DDFB" opacity="0.12"/>
  <g transform="translate(760,130)">
    <rect x="40" y="60" width="140" height="18" rx="4" fill="#A4DDFB"/>
    <rect x="70" y="78" width="12" height="100" fill="#ffffff" opacity="0.85"/>
    <rect x="40" y="170" width="80" height="14" rx="4" fill="#ffffff" opacity="0.7"/>
    <rect x="90" y="100" width="90" height="110" rx="8" fill="rgba(255,255,255,0.12)" stroke="#A4DDFB"/>
    <line x1="105" y1="130" x2="165" y2="130" stroke="#A4DDFB" stroke-width="3"/>
    <line x1="105" y1="155" x2="150" y2="155" stroke="#ffffff" stroke-width="3" opacity="0.6"/>
  </g>
    <text x="72" y="100" fill="#A4DDFB" font-family="Arial,sans-serif" font-size="14" font-weight="700" letter-spacing="2">BLOG GUIDE</text>
    <rect x="72" y="120" width="120" height="4" rx="2" fill="#A4DDFB"/>
  <text x="72" y="500" fill="#ffffff" font-family="Arial,Helvetica,sans-serif" font-size="38" font-weight="700">SEO for Law Firms: Complete Guide</text>
  <text x="72" y="548" fill="#A4DDFB" font-family="Arial,Helvetica,sans-serif" font-size="20" font-weight="600">Legal SEO</text>
  <text x="72" y="590" fill="rgba(255,255,255,0.65)" font-family="Arial,Helvetica,sans-serif" font-size="16">SEO India Tech</text>
</svg>