<svg xmlns="http://www.w3.org/2000/svg" width="1200" height="630" viewBox="0 0 1200 630" role="img" aria-label="Complete Link Building Guide for 2026">
  <defs>
    <linearGradient id="bg-hero-link-building-guide-2026" x1="0%" y1="0%" x2="100%" y2="100%">
      <stop offset="0%" stop-color="#2A255D"/>
      <stop offset="55%" stop-color="#2A255D"/>
      <stop offset="100%" stop-color="#6B2E88"/>
    </linearGradient>
  </defs>
  <rect width="1200" height="630" fill="url(#bg-hero-link-building-guide-2026)"/>
  <circle cx="1050" cy="580" r="120" fill="#A4DDFB" opacity="0.08"/>
  
  <rect x="0" y="0" width="600" height="630" fill="rgba(0,0,0,0.12)"/>
  <rect x="64" y="52" width="153" height="34" rx="17" fill="rgba(255,255,255,0.16)" stroke="rgba(255,255,255,0.25)"/>
  <text x="82" y="75" fill="#A4DDFB" font-family="Arial,sans-serif" font-size="13" font-weight="700" letter-spacing="1.5">LINK BUILDING</text>
  <text x="64" y="108" fill="#ffffff" font-family="Arial,Helvetica,sans-serif" font-size="32" font-weight="700">Complete Link Building Guide</text><text x="64" y="150" fill="#ffffff" font-family="Arial,Helvetica,sans-serif" font-size="32" font-weight="700">for 2026</text>
  <rect x="64" y="216" width="264" height="38" rx="19" fill="rgba(164,221,251,0.2)" stroke="#A4DDFB" stroke-width="2"/>
  <text x="84" y="241" fill="#A4DDFB" font-family="Arial,sans-serif" font-size="15" font-weight="600">link building guide 2026</text>
  <rect x="600" y="40" width="560" height="550" rx="28" fill="rgba(255,255,255,0.1)" stroke="rgba(255,255,255,0.22)" stroke-width="2"/>
  <g transform="translate(600,40)">
  <ellipse cx="130" cy="240" rx="50" ry="32" fill="none" stroke="#A4DDFB" stroke-width="10"/>
  <ellipse cx="260" cy="240" rx="50" ry="32" fill="none" stroke="#ffffff" stroke-width="10"/>
  <ellipse cx="390" cy="240" rx="50" ry="32" fill="none" stroke="#A4DDFB" stroke-width="10"/>
  <rect x="168" y="224" width="44" height="32" fill="#2A255D"/>
  <rect x="298" y="224" width="44" height="32" fill="#2A255D"/>
  <rect x="100" y="340" width="300" height="100" rx="14" fill="rgba(255,255,255,0.12)"/>
  <text x="250" y="400" text-anchor="middle" fill="#ffffff" font-size="16">Editorial backlinks</text></g>
  <text x="64" y="598" fill="rgba(255,255,255,0.65)" font-family="Arial,sans-serif" font-size="15">SEO India Tech · Blog</text>
</svg>