<svg xmlns="http://www.w3.org/2000/svg" width="1200" height="630" viewBox="0 0 1200 630" role="img" aria-label="SEO for Law Firms: Complete Guide">
  <defs>
    <linearGradient id="bg-hero-seo-law-firms-complete-guide" x1="0%" y1="0%" x2="100%" y2="100%">
      <stop offset="0%" stop-color="#2A255D"/>
      <stop offset="55%" stop-color="#2A255D"/>
      <stop offset="100%" stop-color="#6B2E88"/>
    </linearGradient>
  </defs>
  <rect width="1200" height="630" fill="url(#bg-hero-seo-law-firms-complete-guide)"/>
  <circle cx="1050" cy="580" r="120" fill="#A4DDFB" opacity="0.08"/>
  
  <rect x="0" y="0" width="600" height="630" fill="rgba(0,0,0,0.12)"/>
  <rect x="64" y="52" width="117" height="34" rx="17" fill="rgba(255,255,255,0.16)" stroke="rgba(255,255,255,0.25)"/>
  <text x="82" y="75" fill="#A4DDFB" font-family="Arial,sans-serif" font-size="13" font-weight="700" letter-spacing="1.5">LEGAL SEO</text>
  <text x="64" y="108" fill="#ffffff" font-family="Arial,Helvetica,sans-serif" font-size="32" font-weight="700">SEO for Law Firms: Complete</text><text x="64" y="150" fill="#ffffff" font-family="Arial,Helvetica,sans-serif" font-size="32" font-weight="700">Guide</text>
  <rect x="64" y="216" width="156" height="38" rx="19" fill="rgba(164,221,251,0.2)" stroke="#A4DDFB" stroke-width="2"/>
  <text x="84" y="241" fill="#A4DDFB" font-family="Arial,sans-serif" font-size="15" font-weight="600">law firm SEO</text>
  <rect x="600" y="40" width="560" height="550" rx="28" fill="rgba(255,255,255,0.1)" stroke="rgba(255,255,255,0.22)" stroke-width="2"/>
  <g transform="translate(600,40)">
  <line x1="260" y1="110" x2="260" y2="200" stroke="#FBBF24" stroke-width="6"/>
  <line x1="180" y1="200" x2="340" y2="200" stroke="#FBBF24" stroke-width="6"/>
  <ellipse cx="180" cy="250" rx="55" ry="30" fill="none" stroke="#A4DDFB" stroke-width="5"/>
  <ellipse cx="340" cy="250" rx="55" ry="30" fill="none" stroke="#A4DDFB" stroke-width="5"/>
  <rect x="150" y="310" width="220" height="140" rx="12" fill="rgba(255,255,255,0.12)" stroke="#ffffff" stroke-width="2"/>
  <line x1="175" y1="350" x2="345" y2="350" stroke="#A4DDFB" stroke-width="4"/>
  <line x1="175" y1="385" x2="300" y2="385" stroke="#ffffff" stroke-width="3" opacity="0.5"/>
  <text x="260" y="480" text-anchor="middle" fill="rgba(255,255,255,0.65)" font-size="15">Practice area SEO</text></g>
  <text x="64" y="598" fill="rgba(255,255,255,0.65)" font-family="Arial,sans-serif" font-size="15">SEO India Tech · Blog</text>
</svg>