<svg xmlns="http://www.w3.org/2000/svg" viewBox="0 0 800 600" fill="none" role="img" aria-label="Catering SEO illustration">
  <defs>
    <linearGradient id="bg-cateringseo" x1="0" y1="0" x2="800" y2="600" gradientUnits="userSpaceOnUse">
      <stop stop-color="#F0FDF4"/>
      <stop offset="1" stop-color="#ECFDF5"/>
    </linearGradient>
    <linearGradient id="card-cateringseo" x1="120" y1="120" x2="680" y2="480" gradientUnits="userSpaceOnUse">
      <stop stop-color="#14532D"/>
      <stop offset="1" stop-color="#166534"/>
    </linearGradient>
  </defs>
  <rect width="800" height="600" fill="url(#bg-cateringseo)"/>
  <rect x="70" y="70" width="660" height="460" rx="28" fill="url(#card-cateringseo)"/>
  <ellipse cx="400" cy="255" rx="70" ry="25" fill="#FFFFFF" opacity="0.15"/><path d="M340 255h120" stroke="#FFFFFF" stroke-width="4"/><circle cx="400" cy="220" r="28" fill="#F26522"/><path d="M385 205 L400 185 L415 205" stroke="#FFFFFF" stroke-width="4" fill="none"/>
  <rect x="110" y="360" width="580" height="130" rx="18" fill="#FFFFFF" opacity="0.12"/>
  <text x="140" y="410" fill="#FFFFFF" font-family="Arial, sans-serif" font-size="30" font-weight="700">Catering SEO</text>
  <text x="140" y="448" fill="#C9D4F5" font-family="Arial, sans-serif" font-size="17">Local SEO  |  AI Overview  |  GMB  |  PPC  |  SMO</text>
  <rect x="140" y="468" width="95" height="22" rx="11" fill="#F26522"/>
  <rect x="248" y="468" width="95" height="22" rx="11" fill="#6B2E88"/>
  <rect x="356" y="468" width="95" height="22" rx="11" fill="#1E3A5F"/>
  <rect x="464" y="468" width="95" height="22" rx="11" fill="#A4DDFB"/>
</svg>
