<svg xmlns="http://www.w3.org/2000/svg" viewBox="0 0 800 600" fill="none" role="img" aria-label="Plastic Surgery SEO illustration">
  <defs>
    <linearGradient id="bg-plasticsurgeryseo" x1="0" y1="0" x2="800" y2="600" gradientUnits="userSpaceOnUse">
      <stop stop-color="#EEF4FF"/>
      <stop offset="1" stop-color="#F8FAFF"/>
    </linearGradient>
    <linearGradient id="card-plasticsurgeryseo" x1="120" y1="120" x2="680" y2="480" gradientUnits="userSpaceOnUse">
      <stop stop-color="#2A255D"/>
      <stop offset="1" stop-color="#4A3F8C"/>
    </linearGradient>
  </defs>
  <rect width="800" height="600" fill="url(#bg-plasticsurgeryseo)"/>
  <rect x="70" y="70" width="660" height="460" rx="28" fill="url(#card-plasticsurgeryseo)"/>
  <circle cx="400" cy="230" r="52" fill="#FFFFFF" opacity="0.15"/><path d="M400 185c-18 0-32 14-32 32 0 22 32 58 32 58s32-36 32-58c0-18-14-32-32-32z" fill="#F26522"/><circle cx="400" cy="217" r="14" fill="#FFFFFF"/>
  <rect x="110" y="360" width="580" height="130" rx="18" fill="#FFFFFF" opacity="0.12"/>
  <text x="140" y="410" fill="#FFFFFF" font-family="Arial, sans-serif" font-size="30" font-weight="700">Plastic Surgery SEO</text>
  <text x="140" y="448" fill="#C9D4F5" font-family="Arial, sans-serif" font-size="17">Local SEO  |  AI Overview  |  GMB  |  PPC  |  SMO</text>
  <rect x="140" y="468" width="95" height="22" rx="11" fill="#F26522"/>
  <rect x="248" y="468" width="95" height="22" rx="11" fill="#6B2E88"/>
  <rect x="356" y="468" width="95" height="22" rx="11" fill="#1E3A5F"/>
  <rect x="464" y="468" width="95" height="22" rx="11" fill="#A4DDFB"/>
</svg>
