<svg xmlns="http://www.w3.org/2000/svg" viewBox="0 0 800 600" fill="none" role="img" aria-label="Realtor SEO illustration">
  <defs>
    <linearGradient id="bg-realtorseo" x1="0" y1="0" x2="800" y2="600" gradientUnits="userSpaceOnUse">
      <stop stop-color="#EEF4FF"/>
      <stop offset="1" stop-color="#F8FAFF"/>
    </linearGradient>
    <linearGradient id="card-realtorseo" x1="120" y1="120" x2="680" y2="480" gradientUnits="userSpaceOnUse">
      <stop stop-color="#2A255D"/>
      <stop offset="1" stop-color="#4A3F8C"/>
    </linearGradient>
  </defs>
  <rect width="800" height="600" fill="url(#bg-realtorseo)"/>
  <rect x="70" y="70" width="660" height="460" rx="28" fill="url(#card-realtorseo)"/>
  <polygon points="400,165 470,235 330,235" fill="#F26522"/><rect x="345" y="235" width="110" height="75" rx="4" fill="#FFFFFF" opacity="0.9"/><rect x="385" y="265" width="30" height="45" rx="2" fill="#2A255D"/>
  <rect x="110" y="360" width="580" height="130" rx="18" fill="#FFFFFF" opacity="0.12"/>
  <text x="140" y="410" fill="#FFFFFF" font-family="Arial, sans-serif" font-size="30" font-weight="700">Realtor SEO</text>
  <text x="140" y="448" fill="#C9D4F5" font-family="Arial, sans-serif" font-size="17">Local SEO  |  AI Overview  |  GMB  |  PPC  |  SMO</text>
  <rect x="140" y="468" width="95" height="22" rx="11" fill="#F26522"/>
  <rect x="248" y="468" width="95" height="22" rx="11" fill="#6B2E88"/>
  <rect x="356" y="468" width="95" height="22" rx="11" fill="#1E3A5F"/>
  <rect x="464" y="468" width="95" height="22" rx="11" fill="#A4DDFB"/>
</svg>
