<svg xmlns="http://www.w3.org/2000/svg" viewBox="0 0 800 600" fill="none" role="img" aria-label="Wildlife Removal SEO illustration">
  <defs>
    <linearGradient id="bg-wildliferemovalcompanyseo" x1="0" y1="0" x2="800" y2="600" gradientUnits="userSpaceOnUse">
      <stop stop-color="#F8FAFC"/>
      <stop offset="1" stop-color="#F1F5F9"/>
    </linearGradient>
    <linearGradient id="card-wildliferemovalcompanyseo" x1="120" y1="120" x2="680" y2="480" gradientUnits="userSpaceOnUse">
      <stop stop-color="#334155"/>
      <stop offset="1" stop-color="#475569"/>
    </linearGradient>
  </defs>
  <rect width="800" height="600" fill="url(#bg-wildliferemovalcompanyseo)"/>
  <rect x="70" y="70" width="660" height="460" rx="28" fill="url(#card-wildliferemovalcompanyseo)"/>
  <ellipse cx="400" cy="240" rx="45" ry="35" fill="#FFFFFF" opacity="0.15"/><circle cx="385" cy="225" r="6" fill="#2A255D"/><circle cx="415" cy="225" r="6" fill="#2A255D"/><ellipse cx="400" cy="245" rx="10" ry="6" fill="#F26522"/><path d="M355 235 Q330 210 345 195M445 235 Q470 210 455 195" stroke="#FFFFFF" stroke-width="4" fill="none"/>
  <rect x="110" y="360" width="580" height="130" rx="18" fill="#FFFFFF" opacity="0.12"/>
  <text x="140" y="410" fill="#FFFFFF" font-family="Arial, sans-serif" font-size="30" font-weight="700">Wildlife Removal SEO</text>
  <text x="140" y="448" fill="#C9D4F5" font-family="Arial, sans-serif" font-size="17">Local SEO  |  AI Overview  |  GMB  |  PPC  |  SMO</text>
  <rect x="140" y="468" width="95" height="22" rx="11" fill="#F26522"/>
  <rect x="248" y="468" width="95" height="22" rx="11" fill="#6B2E88"/>
  <rect x="356" y="468" width="95" height="22" rx="11" fill="#1E3A5F"/>
  <rect x="464" y="468" width="95" height="22" rx="11" fill="#A4DDFB"/>
</svg>
